<svg xmlns="http://www.w3.org/2000/svg" viewBox="0 0 218.27 218.27"><defs><style>.cls-1,.cls-3,.cls-5,.cls-7,.cls-8{fill:none;}.cls-2{fill:#fff;}.cls-3,.cls-5{stroke:#d89a1e;}.cls-3,.cls-5,.cls-7,.cls-8{stroke-miterlimit:10;}.cls-3{stroke-width:2px;}.cls-4{fill:#d89a1e;}.cls-5,.cls-7{stroke-width:7px;}.cls-6{fill:#28306d;}.cls-7,.cls-8{stroke:#28306d;}.cls-8{stroke-width:4px;}</style></defs><g id="Ebene_8" data-name="Ebene 8"><rect class="cls-1" width="218.27" height="218.27"/></g><g id="Ebene_2_Kopie" data-name="Ebene 2 Kopie"><circle class="cls-2" cx="109.13" cy="109.13" r="106.3"/></g><g id="Ebene_3_Kopie_Kopie" data-name="Ebene 3 Kopie Kopie"><path class="cls-3" d="M215.69,110.92c-1.49,2,1.1,5.28-.47,5-3-.61-3.11-10.73-4.91-10.86-2.47-.17-2.11,14.18-3.86,14.07-2.36-.14-3.59-25.39-4.92-25.46-1.94-.11-3.7,53.58-6.75,53.56-4.06,0-9.16-96.11-11.24-96.08-2.37,0-5.52,82.23-9.09,82.33s-7.8-48.22-11-48.11c-2.8.09-4.89,45-8.08,45.07-2.58.08-3.92-40.86-6.32-40.73-1.76.09-1.41,33.68-4.37,33.85-2.25.12-4.34-19.25-8.5-19.28-3.28,0-5,12-8.36,11.91s-3.85-11.49-7.66-11.93c-4.42-.51-8,14.26-12.32,13.77-4.09-.46-4.27-14.16-8.22-14.6-4.34-.47-7.8,15.68-12.19,15.31-4.56-.39-5.81-18.25-8.07-18.14-2.62.12-2.65,24.07-5,24.23C71.39,125,71.05,91,67.49,91c-5.16.07-5.6,39.51-8.58,39.52-3.68,0-9.78-61.38-12.49-61.37s-4.65,61.15-9.35,61.24c-3.85.08-8.27-47-11.27-46.85-2.09.11-1.74,43.37-5,43.51-2.29.1-5.28-21.79-8.36-21.54-1.83.15-2,8-5.24,8.64-1.61.31-3.31-1.23-4.66-2.87"/></g><g id="Ebene_5_Kopie" data-name="Ebene 5 Kopie"><rect class="cls-4" x="42.58" y="157.93" width="10.07" height="4.25" transform="translate(-112.52 207.4) rotate(-89.9)"/><polygon class="cls-4" points="46.17 164.21 47.53 197.99 49.06 161.84 46.17 164.21"/><polygon class="cls-4" points="44.94 133.39 40.86 26.98 54.38 16.15 50.56 133.39 44.94 133.39"/></g><g id="Ebene_6_Kopie" data-name="Ebene 6 Kopie"><circle class="cls-5" cx="47.62" cy="145.19" r="11.34"/></g><g id="Ebene_5" data-name="Ebene 5"><rect class="cls-6" x="55.69" y="51.69" width="10.07" height="4.25" transform="translate(6.8 114.45) rotate(-89.9)"/><polygon class="cls-6" points="62.17 49.66 60.82 15.88 59.28 52.03 62.17 49.66"/><polygon class="cls-6" points="63.4 80.48 67.48 205.91 53.97 197.72 57.78 80.48 63.4 80.48"/></g><g id="Ebene_6" data-name="Ebene 6"><circle class="cls-7" cx="60.73" cy="70.15" r="11.34"/><polygon class="cls-6" points="64.44 71.12 75.75 78.79 73.37 82.35 62.1 74.84 64.44 71.12"/></g><g id="Ebene_7" data-name="Ebene 7"><path class="cls-6" d="M82.76,61V75.89c0,2.61,1,3.77,3,3.77s3-1.16,3-3.77V61h3.3V75.63c0,4.78-2.38,6.52-6.32,6.52s-6.35-1.74-6.35-6.52V61Z"/><path class="cls-6" d="M99.21,61h4.23l5.46,20.71h-3.46l-1.27-5.08H98.1l-1.33,5.08H93.32Zm4.41,13-2.38-10.21h-.06L98.71,74Z"/><path class="cls-6" d="M110.34,61h4l6,15.43h.06V61h3.13V81.75h-4l-6-15.84h-.06V81.75h-3.13Z"/><path class="cls-6" d="M130.38,63.82h-4.93V61h13.08v2.78h-4.84V81.75h-3.31Z"/><path class="cls-6" d="M143.46,61V75.89c0,2.61,1,3.77,3,3.77s3-1.16,3-3.77V61h3.31V75.63c0,4.78-2.38,6.52-6.32,6.52s-6.36-1.74-6.36-6.52V61Z"/><path class="cls-6" d="M156,61h5.16l3.65,15.34h.06L168.46,61h5V81.75h-3.14V64.52h-.05l-4.18,17.23h-2.79l-4.17-17.23h-.06V81.75H156Z"/><path class="cls-6" d="M88.65,173.52a5.08,5.08,0,0,0,.65-2.5v-.32h2.07v.2a8.43,8.43,0,0,1-1.4,4.46l2.23,3.13H89.41l-1-1.4a5.82,5.82,0,0,1-4.14,1.72,4.43,4.43,0,0,1-4.83-4.53,5.29,5.29,0,0,1,2.3-4.3l1-.78-.62-.92a5.44,5.44,0,0,1-1.06-2.69c0-2.35,1.73-3.52,3.91-3.52a3.33,3.33,0,0,1,3.61,3.34,4.24,4.24,0,0,1-2,3.45l-.85.62Zm-5.19-2.34a3.62,3.62,0,0,0-1.52,2.92,2.7,2.7,0,0,0,2.78,2.62,3.5,3.5,0,0,0,2.56-1.27l-3.34-4.69Zm1.77-3.75a3.07,3.07,0,0,0,1.19-2.12,1.43,1.43,0,0,0-1.56-1.54,1.41,1.41,0,0,0-1.54,1.43,4.17,4.17,0,0,0,1,2.28l.36.48Z"/><path class="cls-6" d="M104.21,172.6V173c0,3-1.19,5.86-5.06,5.86-4.14,0-5.42-2.67-5.42-8.53s1.28-8.53,5.45-8.53c4.67,0,4.94,3.45,4.94,5.15v.3H101.5v-.28c0-1.51-.46-3.26-2.35-3.19s-2.8,1.19-2.8,6.48.87,6.62,2.8,6.62c2.19,0,2.44-2.43,2.44-4v-.28Z"/><path class="cls-6" d="M105.37,170.28c0-5.86,1.65-8.53,5.42-8.53s5.43,2.67,5.43,8.53-1.66,8.53-5.43,8.53S105.37,176.14,105.37,170.28Zm8.23-.07c0-5.52-1.24-6.48-2.81-6.48s-2.8,1-2.8,6.48,1.24,6.62,2.8,6.62S113.6,175.87,113.6,170.21Z"/><path class="cls-6" d="M118.25,162.07h3.19l4.76,12.24h0V162.07h2.48v16.42h-3.2l-4.75-12.56h0v12.56h-2.48Z"/><path class="cls-6" d="M133.84,164.28h-3.91v-2.21H140.3v2.21h-3.84v14.21h-2.62Z"/><path class="cls-6" d="M141.5,162.07h5.79c2.3,0,4.17,1.15,4.17,4.23,0,2.12-1,3.75-2.74,4v0c1.63.16,2.48,1.06,2.57,3.36,0,1.06.05,2.35.1,3.33a1.67,1.67,0,0,0,.78,1.43h-3a2.79,2.79,0,0,1-.44-1.45c-.09-1-.06-1.91-.11-3.1-.05-1.8-.6-2.58-2.39-2.58h-2.14v7.13H141.5Zm4.71,7.31a2.41,2.41,0,0,0,2.62-2.66c0-1.75-.75-2.67-2.48-2.67h-2.23v5.33Z"/><path class="cls-6" d="M153.16,170.28c0-5.86,1.65-8.53,5.43-8.53s5.42,2.67,5.42,8.53-1.65,8.53-5.42,8.53S153.16,176.14,153.16,170.28Zm8.23-.07c0-5.52-1.24-6.48-2.8-6.48s-2.81,1-2.81,6.48,1.24,6.62,2.81,6.62S161.39,175.87,161.39,170.21Z"/><path class="cls-6" d="M165.74,162.07h2.62v14.21h6.35v2.21h-9Z"/><path class="cls-6" d="M79.46,135.42h4.66c5.16,0,5.8,3.36,5.8,8.21s-.64,8.21-5.8,8.21H79.46Zm2.62,14.44h2.16c2.16,0,3.06-1.43,3.06-6.23,0-4.62-.78-6.23-3.06-6.23H82.08Z"/><path class="cls-6" d="M94.91,145.42l-4.23-10H93.6l2.76,7.08,2.83-7.08h2.74l-4.4,10v6.42H94.91Z"/><path class="cls-6" d="M103.49,135.42h3.2l4.76,12.23h0V135.42H114v16.42h-3.2L106,139.28h0v12.56h-2.49Z"/><path class="cls-6" d="M120.1,135.42h3.35l4.33,16.42H125l-1-4h-4.81l-1,4h-2.74Zm3.49,10.3-1.88-8.09h0l-2,8.09Z"/><path class="cls-6" d="M129.23,135.42h4.09l2.9,12.16h0l2.86-12.16h4v16.42h-2.49V138.18h0l-3.31,13.66h-2.21l-3.31-13.66h0v13.66h-2.48Z"/><path class="cls-6" d="M146,135.42h2.62v16.42H146Z"/><path class="cls-6" d="M161.63,146v.34c0,3-1.19,5.87-5.06,5.87-4.14,0-5.42-2.67-5.42-8.53s1.28-8.53,5.45-8.53c4.66,0,4.94,3.45,4.94,5.15v.3h-2.62v-.28c0-1.52-.46-3.27-2.35-3.2s-2.8,1.2-2.8,6.49.87,6.62,2.8,6.62c2.19,0,2.44-2.44,2.44-4V146Z"/><path class="cls-6" d="M165.8,146.75v.42c0,2,.87,3,2.69,3a2.33,2.33,0,0,0,2.48-2.39,2.76,2.76,0,0,0-2.34-2.92l-1.8-.62c-2.39-.92-3.42-2.16-3.42-4.51,0-3,2-4.64,5.1-4.64,4.21,0,4.65,2.62,4.65,4.32v.37h-2.63v-.35c0-1.49-.66-2.37-2.29-2.37a2.1,2.1,0,0,0-2.21,2.37c0,1.41.71,2.12,2.46,2.78l1.77.65c2.32.83,3.33,2.09,3.33,4.34,0,3.5-2.11,4.95-5.42,4.95-4.07,0-5-2.71-5-5v-.4Z"/></g><g id="Ebene_2" data-name="Ebene 2"><circle class="cls-8" cx="109.13" cy="109.13" r="106.3"/></g></svg>